<svg xmlns="http://www.w3.org/2000/svg" viewBox="0 0 183.94 183.94"><defs><style>.cls-1{fill:#972f90;}.cls-2{fill:#e82359;}.cls-3{fill:#fff;}</style></defs><title>bongist icon</title><g id="Layer_2" data-name="Layer 2"><g id="Layer_1-2" data-name="Layer 1"><path class="cls-1" d="M183.94,43.41v97.12a43.33,43.33,0,0,1-43.41,43.41H43.41A43.36,43.36,0,0,1,0,140.53V43.41A43.4,43.4,0,0,1,43.41,0h97.12A43.4,43.4,0,0,1,183.94,43.41Z"/><path class="cls-2" d="M156.43,53.3V181a43.39,43.39,0,0,1-15.9,3H43.41a43.21,43.21,0,0,1-14.89-2.62V140.69L76.64,51.8,99.18,40.17Z"/><path class="cls-3" d="M149.55,36.79q-10.83-8.57-36.37-8.59a206.52,206.52,0,0,0-21.33,1.11A92.72,92.72,0,0,0,73.69,32.8a25,25,0,0,0-7.57,3.7A13.18,13.18,0,0,0,61.59,43L49.23,78.9H0v24.34H40.84L29.5,136.17q-3.57,10.4,6,14.58a35.71,35.71,0,0,0,7.93,2.49q4.48.9,9.16,1.49c3.12.41,6.19.67,9.21.8s5.64.21,7.92.21q27.52,0,45.47-9.49T139.88,117q3.84-11.16-.29-18.55c-2.78-4.93-7.15-8.31-13.16-10.18a46.43,46.43,0,0,0,17.23-9.48,35.78,35.78,0,0,0,10.52-15.47Q160.36,45.38,149.55,36.79Zm-44.84,78.63a17.39,17.39,0,0,1-8.84,10.27A30.9,30.9,0,0,1,81.48,129c-2.66,0-5.42-.11-8.28-.31a29.84,29.84,0,0,1-6.81-1.1l8.39-24.35H91.14q9,0,12.41,2.81T104.71,115.42Zm13.71-49.09a17.43,17.43,0,0,1-7.12,9.38q-5,3.2-13.57,3.19H83.15l8.11-23.55a59,59,0,0,1,6.3-.6c2.63-.12,5-.19,7-.19,6,0,10.11,1,12.38,3.19S119.66,62.74,118.42,66.33Z"/></g></g></svg>